<svg xmlns="http://www.w3.org/2000/svg" version="1.1" xmlns:xlink="http://www.w3.org/1999/xlink" xmlns:svgjs="http://svgjs.dev/svgjs" width="2000" height="813" viewBox="0 0 2000 813"><g transform="matrix(1,0,0,1,-1.2121212121213603,0.7724696619495148)"><svg viewBox="0 0 396 161" data-background-color="#ffffff" preserveAspectRatio="xMidYMid meet" height="813" width="2000" xmlns="http://www.w3.org/2000/svg" xmlns:xlink="http://www.w3.org/1999/xlink"><g id="tight-bounds" transform="matrix(1,0,0,1,0.24000000000003752,-0.15297369689282903)"><svg viewBox="0 0 395.5199999999999 161.30594739378566" height="161.30594739378566" width="395.5199999999999"><g><svg viewBox="0 0 395.5199999999999 161.30594739378566" height="161.30594739378566" width="395.5199999999999"><g><svg viewBox="0 0 395.5199999999999 161.30594739378566" height="161.30594739378566" width="395.5199999999999"><g id="textblocktransform"><svg viewBox="0 0 395.5199999999999 161.30594739378566" height="161.30594739378566" width="395.5199999999999" id="textblock"><g><svg viewBox="0 0 395.5199999999999 161.30594739378566" height="161.30594739378566" width="395.5199999999999"><g transform="matrix(1,0,0,1,0,0)"><svg width="395.5199999999999" viewBox="81.16000000000001 -35.449999999999996 192.51 75.46" height="161.30594739378566" data-palette-color="#000000"><svg></svg><svg></svg><g class="undefined-text-0" data-fill-palette-color="primary" id="text-0"><path d="M110.92-17.36v13.82c-1.627 1.387-3.44 2.45-5.44 3.19-2 0.74-4.083 1.11-6.25 1.11v0c-1.66 0-3.26-0.217-4.8-0.65-1.54-0.433-2.977-1.043-4.31-1.83-1.333-0.793-2.553-1.737-3.66-2.83-1.107-1.1-2.05-2.323-2.83-3.67-0.78-1.34-1.387-2.783-1.82-4.33-0.433-1.547-0.65-3.15-0.65-4.81v0c0-1.66 0.217-3.253 0.65-4.78 0.433-1.533 1.04-2.97 1.82-4.31 0.78-1.347 1.723-2.567 2.83-3.66 1.107-1.1 2.327-2.04 3.66-2.82 1.333-0.787 2.77-1.393 4.31-1.82 1.54-0.433 3.14-0.65 4.8-0.65v0c2.167 0 4.25 0.37 6.25 1.11 2 0.74 3.813 1.803 5.44 3.19v0l-3.66 6.1c-1.06-1.073-2.28-1.917-3.66-2.53-1.387-0.607-2.843-0.91-4.37-0.91v0c-1.533 0-2.97 0.293-4.31 0.88-1.34 0.587-2.517 1.38-3.53 2.38-1.007 1-1.803 2.17-2.39 3.51-0.587 1.347-0.88 2.783-0.88 4.31v0c0 1.547 0.293 2.997 0.88 4.35 0.587 1.347 1.383 2.527 2.39 3.54 1.013 1.007 2.19 1.803 3.53 2.39 1.34 0.587 2.777 0.88 4.31 0.88v0c0.88 0 1.733-0.107 2.56-0.32 0.833-0.213 1.623-0.507 2.37-0.88v0-9.96zM140.83-7.01v7.01h-24.51v-35.01h7.01v28zM177.57-17.36v0c0 1.66-0.213 3.26-0.64 4.8-0.433 1.54-1.04 2.98-1.82 4.32-0.78 1.34-1.723 2.563-2.83 3.67-1.107 1.107-2.33 2.057-3.67 2.85-1.333 0.787-2.773 1.397-4.32 1.83-1.547 0.433-3.15 0.65-4.81 0.65v0c-1.66 0-3.257-0.217-4.79-0.65-1.54-0.433-2.983-1.043-4.33-1.83-1.34-0.793-2.563-1.743-3.67-2.85-1.107-1.107-2.053-2.33-2.84-3.67-0.793-1.34-1.407-2.78-1.84-4.32-0.427-1.54-0.64-3.14-0.64-4.8v0c0-1.66 0.213-3.263 0.64-4.81 0.433-1.547 1.047-2.987 1.84-4.32 0.787-1.333 1.733-2.553 2.84-3.66 1.107-1.107 2.33-2.05 3.67-2.83 1.347-0.787 2.79-1.393 4.33-1.82 1.533-0.433 3.13-0.65 4.79-0.65v0c1.66 0 3.263 0.217 4.81 0.65 1.547 0.427 2.987 1.033 4.32 1.82 1.34 0.78 2.563 1.723 3.67 2.83 1.107 1.107 2.05 2.327 2.83 3.66 0.78 1.333 1.387 2.773 1.82 4.32 0.427 1.547 0.64 3.15 0.64 4.81zM170.62-17.36v0c0-1.527-0.293-2.97-0.88-4.33-0.587-1.36-1.38-2.54-2.38-3.54-1-1-2.18-1.793-3.54-2.38-1.36-0.587-2.807-0.88-4.34-0.88v0c-1.547 0-2.993 0.293-4.34 0.88-1.353 0.587-2.533 1.38-3.54 2.38-1.013 1-1.813 2.18-2.4 3.54-0.58 1.36-0.87 2.803-0.87 4.33v0c0 1.533 0.29 2.97 0.87 4.31 0.587 1.34 1.387 2.517 2.4 3.53 1.007 1.007 2.187 1.803 3.54 2.39 1.347 0.587 2.793 0.88 4.34 0.88v0c1.533 0 2.98-0.293 4.34-0.88 1.36-0.587 2.54-1.383 3.54-2.39 1-1.013 1.793-2.19 2.38-3.53 0.587-1.34 0.88-2.777 0.88-4.31zM210.17-10.5v0c0 1.447-0.277 2.807-0.83 4.08-0.553 1.267-1.307 2.377-2.26 3.33-0.953 0.953-2.063 1.707-3.33 2.26-1.273 0.553-2.633 0.83-4.08 0.83v0h-17.51v-35.01h17.51c1.447 0 2.807 0.277 4.08 0.83 1.267 0.553 2.377 1.307 3.33 2.26 0.953 0.953 1.707 2.063 2.26 3.33 0.553 1.273 0.83 2.633 0.83 4.08v0c0 0.647-0.09 1.313-0.27 2-0.18 0.687-0.433 1.347-0.76 1.98-0.327 0.633-0.717 1.21-1.17 1.73-0.453 0.52-0.957 0.953-1.51 1.3v0c0.567 0.307 1.077 0.723 1.53 1.25 0.46 0.533 0.853 1.117 1.18 1.75 0.32 0.633 0.567 1.297 0.74 1.99 0.173 0.693 0.26 1.363 0.26 2.01zM189.17-13.99v6.98h10.5c0.487 0 0.943-0.09 1.37-0.27 0.42-0.173 0.79-0.42 1.11-0.74 0.313-0.32 0.56-0.69 0.74-1.11 0.18-0.427 0.27-0.883 0.27-1.37v0c0-0.487-0.09-0.943-0.27-1.37-0.18-0.42-0.427-0.79-0.74-1.11-0.32-0.313-0.69-0.56-1.11-0.74-0.427-0.18-0.883-0.27-1.37-0.27v0zM189.17-28v7h10.5c0.487 0 0.943-0.087 1.37-0.26 0.42-0.18 0.79-0.43 1.11-0.75 0.313-0.32 0.56-0.693 0.74-1.12 0.18-0.433 0.27-0.893 0.27-1.38v0c0-0.487-0.09-0.943-0.27-1.37-0.18-0.42-0.427-0.79-0.74-1.11-0.32-0.32-0.69-0.567-1.11-0.74-0.427-0.18-0.883-0.27-1.37-0.27v0zM222.06-13.99h14.01v-7.01c0-0.96-0.183-1.867-0.55-2.72-0.367-0.853-0.867-1.597-1.5-2.23-0.633-0.633-1.377-1.133-2.23-1.5-0.86-0.367-1.77-0.55-2.73-0.55v0c-0.96 0-1.867 0.183-2.72 0.55-0.853 0.367-1.597 0.867-2.23 1.5-0.64 0.633-1.14 1.377-1.5 2.23-0.367 0.853-0.55 1.76-0.55 2.72v0zM243.08-21v21h-7.01v-7.01h-14.01v7.01h-6.99v-21c0-1.933 0.367-3.75 1.1-5.45 0.733-1.7 1.73-3.187 2.99-4.46 1.267-1.267 2.75-2.267 4.45-3 1.7-0.733 3.517-1.1 5.45-1.1v0c1.94 0 3.76 0.367 5.46 1.1 1.7 0.733 3.187 1.733 4.46 3 1.267 1.273 2.267 2.76 3 4.46 0.733 1.7 1.1 3.517 1.1 5.45zM273.67-7.01v7.01h-24.51v-35.01h7v28z" fill="#000000" fill-rule="nonzero" stroke="none" stroke-width="1" stroke-linecap="butt" stroke-linejoin="miter" stroke-miterlimit="10" stroke-dasharray="" stroke-dashoffset="0" font-family="none" font-weight="none" font-size="none" text-anchor="none" style="mix-blend-mode: normal" data-fill-palette-color="primary" opacity="1"></path><path d="M115.53 29.56l3.71 6.1c-1.627 1.4-3.45 2.473-5.47 3.22-2.013 0.753-4.103 1.13-6.27 1.13v0c-1.66 0-3.26-0.217-4.8-0.65-1.54-0.433-2.98-1.043-4.32-1.83-1.34-0.793-2.563-1.743-3.67-2.85-1.113-1.107-2.063-2.33-2.85-3.67-0.787-1.34-1.397-2.78-1.83-4.32-0.433-1.54-0.65-3.14-0.65-4.8v0c0-1.66 0.217-3.263 0.65-4.81 0.433-1.547 1.043-2.99 1.83-4.33 0.787-1.347 1.737-2.573 2.85-3.68 1.107-1.107 2.33-2.053 3.67-2.84 1.34-0.787 2.78-1.397 4.32-1.83 1.54-0.433 3.14-0.65 4.8-0.65v0c2.167 0 4.257 0.37 6.27 1.11 2.02 0.74 3.843 1.82 5.47 3.24v0l-3.71 6.1c-1.027-1.107-2.24-1.957-3.64-2.55-1.4-0.593-2.863-0.89-4.39-0.89v0c-1.547 0-2.997 0.293-4.35 0.88-1.347 0.587-2.527 1.38-3.54 2.38-1.007 1-1.803 2.18-2.39 3.54-0.587 1.36-0.88 2.803-0.88 4.33v0c0 1.533 0.293 2.97 0.88 4.31 0.587 1.34 1.383 2.517 2.39 3.53 1.013 1.007 2.193 1.803 3.54 2.39 1.353 0.587 2.803 0.88 4.35 0.88v0c1.527 0 2.99-0.297 4.39-0.89 1.4-0.593 2.613-1.443 3.64-2.55zM130.3 4.24v35.01h-7.01v-35.01zM151.49 11.25v28h-6.98v-28h-10.52v-7.01h28v7.01zM172.71 4.24v35.01h-7.01v-35.01zM204.2 32.24v7.01h-27.1l14.94-28h-14.94v-7.01h27.1l-14.89 28zM232.55 32.24v7.01h-24v-35.01h24v7.01h-17v7h11.5v7.01h-11.5v6.98zM265.46 4.24v35.01h-7.5l-13.5-23.05v23.05h-7.01v-35.01h7.5l13.5 23.07v-23.07z" fill="#000000" fill-rule="nonzero" stroke="none" stroke-width="1" stroke-linecap="butt" stroke-linejoin="miter" stroke-miterlimit="10" stroke-dasharray="" stroke-dashoffset="0" font-family="none" font-weight="none" font-size="none" text-anchor="none" style="mix-blend-mode: normal" data-fill-palette-color="primary" opacity="1"></path></g></svg></g></svg></g></svg></g></svg></g></svg></g><defs></defs></svg><rect width="395.5199999999999" height="161.30594739378566" fill="none" stroke="none" visibility="hidden"></rect></g></svg></g></svg>